PathFileType	4	(X/Y/Z)	pose_F01_0-84.trc
DataRate	CameraRate	NumFrames	NumMarkers	Units	OrigDataRate	OrigDataStartFrame	OrigNumFrames
30	30	7	21	m	30	63	84
Frame#	Time	CHip			RHip			RKnee			RAnkle			RBigToe			RSmallToe			RHeel			LHip			LKnee			LAnkle			LBigToe			LSmallToe			LHeel			Neck			Nose			RShoulder			RElbow			RWrist			LShoulder			LElbow			LWrist			
		X1	Y1	Z1	X2	Y2	Z2	X3	Y3	Z3	X4	Y4	Z4	X5	Y5	Z5	X6	Y6	Z6	X7	Y7	Z7	X8	Y8	Z8	X9	Y9	Z9	X10	Y10	Z10	X11	Y11	Z11	X12	Y12	Z12	X13	Y13	Z13	X14	Y14	Z14	X15	Y15	Z15	X16	Y16	Z16	X17	Y17	Z17	X18	Y18	Z18	X19	Y19	Z19	X20	Y20	Z20	X21	Y21	Z21	
63	2.1	-0.16824490381539453	1.8445070522186926	-0.7164191098607019	-0.1843025986554168	1.8438240516459847	-0.6501291028194148	-0.20007048106875627	1.7158351714214568	-0.5931670238488618	-0.19538609801592388	1.5835812382904526	-0.5178061647179034	-0.2241615838039061	1.5543984982692545	-0.484093905928093	-0.2202608409227958	1.5621965251244978	-0.4578012993988674	-0.19136296254193888	1.5763668355251987	-0.5253828715129433	-0.15137578154795245	1.8451484192983065	-0.7855724397403504	-0.151152758119754	1.7086988073661962	-0.7681844212419576	-0.15354766153455313	1.5670685991808557	-0.7616401853221468	-0.18496467607532716	1.5313139812225651	-0.730801337163431	-0.28163767438853793	1.4735942770823143	-1.1820982154228232	-0.14759553253363356	1.5574521023474013	-0.7578519577305276	-0.15711133781200612	1.9999966543360035	-0.7465101399113047	-0.18268617552200558	2.0613033027710985	-0.7179673333364166	-0.1782066575549022	1.9945531390511695	-0.6561685288231688	-0.19201964744771263	1.9103089555096984	-0.6041572233624468	-1.434546669725663	1.856042360334509	0.6359321303102452	-0.13423967359679825	2.0041708719019895	-0.8388472795161583	-0.14071502881206074	1.9192508091998703	-0.8567339725459883	-1.2237013698349046	1.8535104608836694	0.2881824487678544
64	2.1333333333333333	-0.1724457205407092	1.8374029379260297	-0.698897351107187	-0.18731187925651993	1.8379261172427124	-0.6295648657107404	-0.19815812318450193	1.7110659839343874	-0.5688215771951755	-0.2029540666184543	1.5841149700580104	-0.49631428634176783	-0.23015281917053512	1.5529972543380166	-0.46879224226105937	-0.22619289060647613	1.5609515225910564	-0.44234108318252313	-0.19948268101575994	1.5766608662399781	-0.49939418968590626	-0.15515894730446908	1.8393102730352682	-0.7653192244318255	-0.1517078738850252	1.7070494083602477	-0.759377959469946	-0.15610230940012013	1.5655900717664526	-0.7588253877806201	-0.2991018435384991	1.4735339167441799	-1.1563757986678123	-0.2825186264506206	1.4728155047084137	-1.1851717791432739	-0.14793966831604016	1.5560520038232997	-0.7572366896361928	-0.16149565079609937	1.9967542779437704	-0.7299574866353115	-0.18669458423797408	2.0611114350256527	-0.701859558123733	-0.18138113910257186	1.991666920801509	-0.6369099436994345	-0.19326102587831948	1.9123676097155886	-0.5900829317719012	-1.4546783400936996	1.8589583143584796	0.6647276620088386	-0.14130021409029325	2.0008811397510033	-0.8200441968901483	-0.1431606470872432	1.9188430552304345	-0.842738830922148	-0.1868668979576586	1.9412240532289076	-0.7465043635512787
65	2.1666666666666665	-0.17670551675664184	1.8364177722170796	-0.6738166731888551	-0.1921408035936165	1.8345848752048852	-0.6069556323779526	-0.2035574013669559	1.7078813761227223	-0.558125521283304	-0.20511178548908246	1.5819872196793598	-0.484633767929167	-0.233448234830465	1.5481949655217309	-0.4600106845179397	-0.2296836208248554	1.5553017572146883	-0.43307270574651713	-0.2009965148291636	1.5733288297749277	-0.4924371040540021	-0.16399259065472846	1.8372258750530572	-0.7440000470116889	-0.15262073785210004	1.705613613172099	-0.7500625441153705	-0.15519921982785728	1.5649466437212902	-0.7555753754931029	-0.18756671859511362	1.5302209944793672	-0.7281464053067925	-0.2826413914432767	1.4722362129036606	-1.1850633206960626	-0.14651274846664405	1.5529004678533969	-0.7541139733838889	-0.16694282797333007	1.9951085109102098	-0.7078288754528691	-0.19199771556045414	2.060066736209425	-0.6806095728383258	-0.18319688907597417	1.990723795711791	-0.6139221153297734	-0.19591235283066993	1.910904506924766	-0.5614964565348917	-0.20897272563515037	1.940413258653493	-0.6140290731073509	-0.14829666221959156	1.998136028242007	-0.8011912798279662	-1.1856342557675625	1.8286171582381077	0.21651372913955974	-0.19720586399310994	1.9362545230855506	-0.7314456092159386
66	2.2	-0.18363249432644388	1.8332390032540071	-0.6456178843805132	-0.1943659579780522	1.8314630086468635	-0.5832561405112805	-0.20646116483131638	1.7051349986677709	-0.5372689845063193	-0.20446889174755759	1.5807976621966795	-0.4806288461657801	-0.23283049600927377	1.5477799910735752	-0.45620449537877483	-0.22998322049496017	1.554259763949999	-0.43277232812856176	-0.20235251130641144	1.5723019176843018	-0.4862985059198561	-0.16832150550442146	1.835168361519619	-0.7152039820664752	-0.15806521892255274	1.7041273243462105	-0.7362003351325904	-0.15743575804918333	1.5648922240087977	-0.7533657888491301	-0.1873084867375188	1.5284588747956525	-0.7284059825870913	-0.28168732048164136	1.4733705846923504	-1.1819587838231802	-0.14732086821091778	1.5528034154719064	-0.7572940197132348	-0.17612792563520022	1.9916499325610915	-0.6784588255207374	-0.19714008566466143	2.0585834576128903	-0.6594611537327086	-0.18948659341037755	1.987584598389726	-0.5865528651671592	-0.1922241875363357	1.9056103324483038	-0.5475927905647658	-0.22902882673537475	1.913823905255361	-0.5521201086005026	-0.15741670349224846	1.9957777872693536	-0.7689436723378588	-0.15113364036052926	1.9091062827886809	-0.8027390865732755	-1.2046227252077861	1.827623195298469	0.28342593553345247
67	2.2333333333333334	-0.19220949756407693	1.8336569716262165	-0.6154263445442144	-0.20145823310906577	1.8319429046425229	-0.5498594054865545	-0.20745875603901476	1.705037185071605	-0.518551336031658	-0.20617028553708688	1.5788230741657598	-0.47849784362698317	-0.23455305132353585	1.546553777076445	-0.453828783387664	-0.23046662567602602	1.552360664952348	-0.4272230833174275	-0.2023192342978619	1.5721482651906047	-0.48631092404493603	-0.1760598123346789	1.834326289476482	-0.6786378253574986	-0.1650943798609279	1.703142959456502	-0.7083631078629204	-0.15642871107213	1.5642606778524664	-0.7500041056979659	-0.18723712935125697	1.5279443565638287	-0.7283006501031606	-0.28269482588756356	1.4722745417263516	-1.1862505229572204	-0.14588716438583987	1.553013372013162	-0.7545886790335735	-0.1796482527587904	1.9907750697965247	-0.6506314293719475	-0.20138195805522424	2.0587801059639865	-0.6354522460931842	-0.19421178867814123	1.987006488906751	-0.5646019198489138	-0.20315444984543593	1.9140474499345883	-0.511613920265757	-0.2298792469542142	1.8749459753646331	-0.45200192981100124	-0.16178848721517383	1.9935010917339813	-0.7413107567437802	-0.15784839204239565	1.9167107766869278	-0.7711140225757396	-0.2085227849748838	1.8712447734044846	-0.7375694192274187
68	2.2666666666666666	-0.19553757973766747	1.8404004155223888	-0.5912992140431145	-0.20708510335827066	1.8397753944660753	-0.5269193669158042	-0.21046259723086813	1.7069883547569145	-0.506556047236347	-0.20709803741332727	1.58120639709479	-0.47338963209838164	-0.2346569081795811	1.5468189752168926	-0.4538490319390986	-0.23074065386461481	1.5537638930295794	-0.42694908708573515	-0.20181431778192024	1.5746843534113573	-0.48734461159527476	-0.18652335650448088	1.8420250382185808	-0.6596382211886662	-0.17845251793700118	1.708452689353452	-0.6786710539020797	-0.15905457576523566	1.5713855554370704	-0.7323726989624104	-0.3024421816277182	1.4749890717314187	-1.1567252070033982	-0.2827667431988749	1.4767460108232067	-1.1870523106738808	-0.1476607218985947	1.5638916612925873	-0.7387610885450092	-0.18682044403701703	1.9900512587754817	-0.626472879124091	-0.20620854468569796	2.05817095271288	-0.6141420292787119	-0.19680131119005964	1.9885500354327832	-0.5368344905633198	-0.20523521952191798	1.913023996800109	-0.4824766584154843	-0.23439930332769707	1.8559720944046598	-0.409289934516937	-0.17035903285176016	1.9942162834534651	-0.7203733201249516	-0.1650034387642493	1.9134236347236826	-0.7546139596881071	-0.19460928643346734	1.8434785216904637	-0.7497930336050467
69	2.3	-0.2024704172876751	1.8309111808321468	-0.5741392192932688	-0.21086349000671697	1.8292953929369722	-0.5083860749414947	-0.21014498061384862	1.702738656217808	-0.48871969301725326	-0.20893597300784575	1.5799096849125587	-0.47141713563046134	-0.23465298657591407	1.5470056588012886	-0.45392585597484053	-0.23068300369710626	1.5532136346611274	-0.42723447829782846	-0.2017666441136807	1.5741358865447828	-0.48740283280145186	-0.1900813372085354	1.8341990516539666	-0.6387603801292482	-0.192562037172391	1.704666056659947	-0.6468543874514201	-0.16310768688509053	1.5761215471792855	-0.708342830110185	-0.18385354967584144	1.5365525599944094	-0.6997159240636354	-0.17378187970242698	1.5441464432203296	-0.7350100704068122	-0.15323766383465495	1.5670995007768591	-0.7132346249719794	-0.18846727505406824	1.9909241121626609	-0.6127285089345688	-0.20983366003269543	2.0588384174871646	-0.5984540398410948	-0.20304650396853133	1.9881158984535594	-0.5213777690691764	-0.2113827129836297	1.9096910300006709	-0.4575290100561357	-0.23350133381409438	1.8398774224369503	-0.38548731610508924	-0.16863118129990678	1.9924826600751215	-0.702598042815696	-0.17225767571913936	1.9073649454687378	-0.7267208942756528	-0.18288610844216519	1.8304132240773443	-0.7446058329222947
